<?xml version="1.0" standalone="no"?>
<!DOCTYPE svg PUBLIC "-//W3C//DTD SVG 20010904//EN"
 "http://www.w3.org/TR/2001/REC-SVG-20010904/DTD/svg10.dtd">
<svg version="1.0" xmlns="http://www.w3.org/2000/svg"
 width="1033.000000pt" height="1280.000000pt" viewBox="0 0 1033.000000 1280.000000"
 preserveAspectRatio="xMidYMid meet">
<metadata>
Created by potrace 1.15, written by Peter Selinger 2001-2017
</metadata>
<g transform="translate(0.000000,1280.000000) scale(0.100000,-0.100000)"
fill="#000000" stroke="none">
<path d="M3955 12712 c-48 -111 -1026 -2316 -1493 -3367 -195 -440 -355 -808
-356 -818 -1 -12 91 -70 343 -217 189 -110 345 -199 346 -198 31 42 2753 3766
2757 3774 4 6 -297 186 -744 445 -413 239 -765 442 -783 451 l-32 17 -38 -87z"/>
<path d="M5315 9455 c-1232 -872 -2244 -1591 -2249 -1598 -6 -9 52 -120 185
-351 107 -186 199 -340 205 -343 10 -4 4998 2300 5015 2316 9 9 -888 1556
-903 1558 -7 1 -1021 -711 -2253 -1582z"/>
<path d="M1195 7730 c-174 -20 -367 -84 -520 -171 -337 -193 -569 -517 -652
-909 -25 -118 -25 -382 0 -500 100 -475 425 -852 870 -1009 153 -54 273 -74
442 -74 229 0 407 43 609 146 329 168 574 465 675 817 39 139 51 224 51 370 0
146 -12 231 -51 370 -118 414 -441 753 -849 893 -170 58 -406 86 -575 67z"/>
<path d="M9010 7209 c-2421 -181 -5385 -399 -5422 -399 l-38 0 0 -410 0 -410
38 0 c20 0 953 -67 2072 -150 1119 -83 2628 -195 3353 -248 l1317 -98 0 908
c0 500 -1 907 -2 907 -2 -1 -595 -46 -1318 -100z"/>
<path d="M3412 5573 c-279 -482 -354 -618 -346 -630 14 -21 4494 -3185 4505
-3181 14 5 908 1552 900 1559 -10 10 -4999 2319 -5010 2319 -6 0 -28 -30 -49
-67z"/>
<path d="M2445 4489 c-249 -146 -340 -204 -339 -216 1 -10 161 -378 356 -818
467 -1051 1445 -3256 1493 -3367 l38 -87 32 17 c18 9 370 213 783 452 687 397
751 436 739 452 -52 78 -2753 3767 -2757 3767 -3 -1 -158 -91 -345 -200z"/>
</g>
</svg>
